<?xml version="1.0" encoding="utf-8" ?>
<svg xmlns="http://www.w3.org/2000/svg" xmlns:xlink="http://www.w3.org/1999/xlink" width="444" height="444">
	<defs>
		<linearGradient id="gradient_0" gradientUnits="userSpaceOnUse" x1="831.88867" y1="844.20007" x2="192.14024" y2="179.77211">
			<stop offset="0" stop-color="#007230"/>
			<stop offset="1" stop-color="#029340"/>
		</linearGradient>
	</defs>
	<path fill="url(#gradient_0)" transform="scale(0.433594 0.433594)" d="M505.813 48.741C624.6 47.4185 743.242 94.1196 829.231 176.092C917.45 260.189 970.757 377.809 973.662 499.903C974.453 533.139 972.093 566.842 965.806 599.513C948.893 687.417 906.373 768.802 844.547 833.452C780.22 900.717 693.839 947.037 602.75 965.204C575.576 970.623 547.799 973.206 520.125 973.831C400.503 977.272 282.616 929.486 195.415 848.351C107.783 766.815 53.9922 649.096 49.6832 529.529C45.2663 406.967 89.4485 288.012 173.099 198.25C248.995 116.81 353.482 63.6897 464.168 51.0237C477.971 49.4442 491.94 49.2236 505.813 48.741ZM495.561 132.714C476.115 133.881 456.74 135.8 437.618 139.667C358.306 155.702 281.997 198.687 228.222 259.216C163.089 332.53 126.063 432.109 132.014 530.482C133.65 557.527 137.458 584.301 144.545 610.5C163.831 681.795 205.103 746.488 260.294 795.296C317.324 845.73 387.308 876.444 462.568 886.929C483.371 889.827 504.684 891.633 525.7 890.325L528.376 890.123C629.226 884.599 726.968 839.613 794.654 764.15C860.962 690.225 898.205 589.861 892.531 490.386C886.711 388.323 837.862 294.23 761.824 226.855C689.717 162.963 592.387 128.41 496.114 132.676L495.561 132.714Z"/>
	<path fill="#1CBC4A" transform="scale(0.433594 0.433594)" d="M671.77 220.329L678.57 224.042C701.448 237.652 722.663 252.909 741.595 271.694C760.063 290.41 777.097 310.333 791.617 332.292L812.092 365.233C807.902 364.927 803.423 364.015 799.25 364.149C797.167 364.216 795.045 364.701 792.969 364.929C784.945 365.808 776.186 369.728 769.75 374.561C764.961 378.156 760.743 382.751 756.532 386.998L738.266 405.393L690.125 453.673L661.166 482.666C660.089 476.948 660.898 469.658 660.909 463.79L661.437 415.46C661.525 410.16 660.526 403.506 661.632 398.483C661.9 397.266 661.836 396.155 661.762 394.918C660.997 392.342 644.507 376.273 641.538 373.155L585.213 316.764L580.568 312.28L645.354 248.343L659.679 234.032C664.036 229.673 668.368 225.522 671.77 220.329Z"/>
	<path fill="#53D260" transform="scale(0.433594 0.433594)" d="M671.77 220.329L678.57 224.042C701.448 237.652 722.663 252.909 741.595 271.694L670.682 342.091L652.43 360.306C649.146 363.587 643.655 367.976 641.924 372.219L641.538 373.155L585.213 316.764L580.568 312.28L645.354 248.343L659.679 234.032C664.036 229.673 668.368 225.522 671.77 220.329Z"/>
	<path fill="#1CBC4A" transform="scale(0.433594 0.433594)" d="M671.77 220.329L678.57 224.042L613.119 289.203L594.066 308.196C591.29 310.962 588.403 314.516 585.213 316.764L580.568 312.28L645.354 248.343L659.679 234.032C664.036 229.673 668.368 225.522 671.77 220.329Z"/>
	<path fill="#1CBC4A" transform="scale(0.433594 0.433594)" d="M840.457 453.725C844.007 469.851 845.264 486.105 845.656 502.592C847.239 569.268 827.885 633.987 791.914 690.061C759.359 740.812 712.373 783.39 657.992 809.716C632.56 822.029 605.695 830.711 578.093 836.601C554.141 841.712 530.662 843.407 506.233 842.944C443.887 841.763 383.757 824.24 331.376 790.15C309.185 775.708 289.284 758.591 270.421 740.067C272.752 736.177 276.813 732.831 280.023 729.626L301.23 708.97L341.63 668.867C342.439 668.123 342.953 667.824 343.966 667.467C343.452 684.513 342.749 700.057 355.211 713.273L360.017 717.696C365.919 721.321 371.829 723.842 378.791 724.438C384.714 724.945 390.909 724.607 396.863 724.609L428.323 724.614L529.694 724.606L595.952 724.6L611.633 724.628C616.68 724.737 621.713 725.059 626.708 724.07C635.563 722.318 643.642 718.171 648.753 710.489C651.246 706.743 653.18 702.344 653.974 697.908C655.429 689.787 654.644 681.711 654.695 673.527C654.763 662.59 655.932 650.608 653.82 639.844C655.826 636.949 658.865 634.385 661.361 631.879L840.457 453.725Z"/>
	<path fill="#108741" transform="scale(0.433594 0.433594)" d="M653.82 639.844C655.826 636.949 658.865 634.385 661.361 631.879C663.004 635.522 662.451 641.569 662.479 645.596L662.59 668.985C662.671 678.103 663.403 687.323 662.823 696.428C662.574 700.339 661.875 704.269 660.482 707.941C658.789 712.402 656.235 716.532 653.172 720.17L652.569 720.895C645.687 729.013 635.021 732.903 624.655 733.703C607.729 735.009 590.377 733.824 573.396 733.836L470.633 734.066L409.357 734.233C399.653 734.265 388.43 735.845 378.972 733.672L378.218 733.504C371.891 732.013 363.451 725.41 360.444 719.5C360.144 718.909 360.088 718.342 360.017 717.696C365.919 721.321 371.829 723.842 378.791 724.438C384.714 724.945 390.909 724.607 396.863 724.609L428.323 724.614L529.694 724.606L595.952 724.6L611.633 724.628C616.68 724.737 621.713 725.059 626.708 724.07C635.563 722.318 643.642 718.171 648.753 710.489C651.246 706.743 653.18 702.344 653.974 697.908C655.429 689.787 654.644 681.711 654.695 673.527C654.763 662.59 655.932 650.608 653.82 639.844Z"/>
	<path fill="#53D260" transform="scale(0.433594 0.433594)" d="M219.065 670.284C208.016 650.177 199.23 628.025 192.584 606.104C173.212 542.204 174.845 471.606 195.814 408.306C202.047 389.49 210.34 371.159 219.744 353.721C262.582 274.292 335.187 217.463 421.416 191.743C490.893 171.02 566.319 175.406 633.612 202.135C646.671 207.322 659.417 213.651 671.77 220.329C668.368 225.522 664.036 229.673 659.679 234.032L645.354 248.343L580.568 312.28C576.668 308.457 562.657 292.768 558.533 292.498C557.634 292.095 557.018 291.982 556.03 291.961L517.569 291.964L438.5 292.005L400.659 292.004C393.64 291.997 386.174 291.423 379.25 292.402L378.387 292.517C368.618 293.901 357.669 300.962 351.765 308.782C347.75 314.1 345.081 320.685 344.268 327.305C343.15 336.407 343.942 345.458 343.991 354.584L343.995 401.623L343.961 579.579L343.983 639.367L343.98 658.02C343.98 661.11 344.249 664.414 343.966 667.467C342.953 667.824 342.439 668.123 341.63 668.867L301.23 708.97L280.023 729.626C276.813 732.831 272.752 736.177 270.421 740.067C251.519 722.273 236.27 699.556 223.062 677.36L219.065 670.284Z"/>
	<path fill="#1CBC4A" transform="scale(0.433594 0.433594)" d="M219.065 670.284L309.8 580.726L332.013 558.698C335.783 554.934 339.43 550.644 343.568 547.332L343.374 556.569C343.365 557.029 343.5 558.793 343.32 559.156C342.342 561.131 338.194 564.232 336.5 565.906L310.342 591.65L223.062 677.36L219.065 670.284Z"/>
	<path fill="#FEFEFE" transform="scale(0.433594 0.433594)" d="M343.966 667.467C344.249 664.414 343.98 661.11 343.98 658.02L343.983 639.367L343.961 579.579L343.995 401.623L343.991 354.584C343.942 345.458 343.15 336.407 344.268 327.305C345.081 320.685 347.75 314.1 351.765 308.782C357.669 300.962 368.618 293.901 378.387 292.517L379.25 292.402C386.174 291.423 393.64 291.997 400.659 292.004L438.5 292.005L517.569 291.964L556.03 291.961C557.018 291.982 557.634 292.095 558.533 292.498C562.657 292.768 576.668 308.457 580.568 312.28L585.213 316.764L641.538 373.155C644.507 376.273 660.997 392.342 661.762 394.918C661.836 396.155 661.9 397.266 661.632 398.483C660.526 403.506 661.525 410.16 661.437 415.46L660.909 463.79C660.898 469.658 660.089 476.948 661.166 482.666L690.125 453.673L738.266 405.393L756.532 386.998C760.743 382.751 764.961 378.156 769.75 374.561C776.186 369.728 784.945 365.808 792.969 364.929C795.045 364.701 797.167 364.216 799.25 364.149C803.423 364.015 807.902 364.927 812.092 365.233C817.236 367.197 822.086 368.725 826.997 371.382C836.942 376.764 845.305 385.867 849.896 396.19C855.624 409.071 855.981 423.27 850.779 436.371C848.269 442.693 844.286 448.152 840.457 453.725L661.361 631.879C658.865 634.385 655.826 636.949 653.82 639.844C655.932 650.608 654.763 662.59 654.695 673.527C654.644 681.711 655.429 689.787 653.974 697.908C653.18 702.344 651.246 706.743 648.753 710.489C643.642 718.171 635.563 722.318 626.708 724.07C621.713 725.059 616.68 724.737 611.633 724.628L595.952 724.6L529.694 724.606L428.323 724.614L396.863 724.609C390.909 724.607 384.714 724.945 378.791 724.438C371.829 723.842 365.919 721.321 360.017 717.696L355.211 713.273C342.749 700.057 343.452 684.513 343.966 667.467Z"/>
	<path fill="#108741" transform="scale(0.433594 0.433594)" d="M654.27 394.837C656.743 394.918 659.296 395.137 661.762 394.918C661.836 396.155 661.9 397.266 661.632 398.483C660.526 403.506 661.525 410.16 661.437 415.46L660.909 463.79C660.898 469.658 660.089 476.948 661.166 482.666C659.097 484.51 657.027 486.72 654.52 487.934L654.27 394.837Z"/>
	<path fill="#B5B4B4" transform="scale(0.433594 0.433594)" d="M397.441 608.48L530.756 608.505L519.944 619.753L509.599 630.49L397.47 630.433L397.441 608.48Z"/>
	<path fill="#B5B4B4" transform="scale(0.433594 0.433594)" d="M561.134 548.267L579.522 548.361C579.084 549.848 575.633 552.619 574.445 553.813L557.411 570.975L415.25 571.461L397.503 571.495L397.505 548.784L561.134 548.267Z"/>
	<path fill="#B5B4B4" transform="scale(0.433594 0.433594)" d="M550.694 426.756L600.389 426.495L600.434 449.181L445.375 449.506L397.014 449.76L397.045 426.773L550.694 426.756Z"/>
	<path fill="#B5B4B4" transform="scale(0.433594 0.433594)" d="M397.469 487.481L600.406 487.498L600.456 510.478L397.446 510.213L397.469 487.481Z"/>
	<path fill="#00752D" transform="scale(0.433594 0.433594)" d="M558.533 292.498C562.657 292.768 576.668 308.457 580.568 312.28L585.213 316.764L641.538 373.155C644.507 376.273 660.997 392.342 661.762 394.918C659.296 395.137 656.743 394.918 654.27 394.837C650.825 394.255 647.237 394.617 643.75 394.656L626.537 394.746L558.326 394.995L558.533 292.498Z"/>
	<path fill="#039B05" transform="scale(0.433594 0.433594)" d="M661.166 482.666L690.125 453.673L738.266 405.393L756.532 386.998C760.743 382.751 764.961 378.156 769.75 374.561C776.186 369.728 784.945 365.808 792.969 364.929C795.045 364.701 797.167 364.216 799.25 364.149C803.423 364.015 807.902 364.927 812.092 365.233C817.236 367.197 822.086 368.725 826.997 371.382C836.942 376.764 845.305 385.867 849.896 396.19C855.624 409.071 855.981 423.27 850.779 436.371C848.269 442.693 844.286 448.152 840.457 453.725L661.361 631.879C658.865 634.385 655.826 636.949 653.82 639.844L642.774 651.193C639.049 655.256 635.328 660.636 630.683 663.674C626.801 666.213 622.058 667.366 617.655 668.663L597.494 674.601L526.581 696.996L546.877 615.895L550.64 600C551.368 596.723 551.81 592.635 553.275 589.612C554.937 586.18 559.992 582.518 562.75 579.804L581.229 561.302L627.849 514.502L654.52 487.934C657.027 486.72 659.097 484.51 661.166 482.666Z"/>
	<path fill="#53D260" transform="scale(0.433594 0.433594)" d="M560.928 599.75C562.349 599.422 564.031 599.565 565.5 599.557C569.492 601.734 573.525 606.903 576.796 610.165L600.085 633.38L609.598 642.755C612.181 645.15 616.706 648.679 618.151 651.914C618.713 653.174 618.52 654.534 617.913 655.75C614.823 661.931 603.559 664.007 597.376 666.239L571.338 674.019L546.412 650.006L546.528 649.09C546.922 646.728 547.799 644.301 548.367 641.961L552.855 623.535L555.75 611.878C556.482 608.809 556.938 605.589 558.204 602.68C558.812 601.283 559.699 600.596 560.928 599.75Z"/>
	<path fill="#FEFEFE" transform="scale(0.433594 0.433594)" d="M730.071 429.289L758.821 400.485L816.991 457.72L788.197 486.018C785.725 488.451 783.213 491.398 780.461 493.473L723.671 437.424C724.795 434.276 727.368 431.214 730.071 429.289Z"/>
	<path fill="#00752D" transform="scale(0.433594 0.433594)" d="M723.671 437.424C724.795 434.276 727.368 431.214 730.071 429.289L788.197 486.018C785.725 488.451 783.213 491.398 780.461 493.473L723.671 437.424Z"/>
	<path fill="#FEFEFE" transform="scale(0.433594 0.433594)" d="M723.671 437.424L780.461 493.473L625.574 647.802L600.689 622.982L688.934 534.393L733.518 490.637C735.096 488.969 736.532 487.428 737.366 485.25C737.155 484.703 736.93 483.978 736.561 483.5C735.608 482.264 734.698 482.218 733.25 482.089C730.444 483.377 728.553 485.631 726.423 487.797L717.577 496.789L693.48 520.865L595.982 618.325C594.343 617.899 572.928 595.773 570.53 592.807C573.952 588.169 579.222 583.776 583.313 579.645L610.63 552.055L682.766 479.073L723.671 437.424Z"/>
</svg>
