<?xml version="1.0" encoding="utf-8" ?>
<svg xmlns="http://www.w3.org/2000/svg" xmlns:xlink="http://www.w3.org/1999/xlink" width="468" height="468">
	<path fill="#132C37" transform="matrix(0.457031 0 0 0.457031 0 -1.52588e-05)" d="M510.994 64.2209L517.062 64.5188C528.93 65.5438 540.825 72.3013 548.382 81.3779C558.206 93.1783 560.231 106.863 558.9 121.726C570.61 123.734 582.252 128.135 593.095 132.908C633.136 150.537 666.271 179.15 688.854 216.61C692.378 222.455 695.565 228.531 698.388 234.745C698.631 235.281 700.865 240.848 701.062 240.952C701.299 241.077 703.873 240.844 704.309 240.83C717.319 240.398 729.079 240.522 739.67 249.235C750.131 257.84 752.154 267.237 753.472 280.033L772.159 280.164C778.787 280.225 786.085 279.584 792.007 283.037C797.297 286.12 800.826 291.639 802.1 297.556C803.226 302.789 802.514 309.209 802.524 314.621L802.527 349.223L802.506 386.846C802.497 393.042 802.924 399.596 802.325 405.759C801.918 409.954 800.793 413.894 798.387 417.414C795.612 421.474 791.157 425.121 786.244 425.969L785.5 426.088C781.395 426.813 777.155 426.21 773 426.15L753.459 426.189L753.457 444.03C753.438 451.906 753.456 459.338 749.939 466.594C741.705 483.582 724.321 486.598 707.819 490.76C696.059 493.726 683.688 496.359 672.234 500.292C674.275 502.529 677.023 505.789 679.684 507.229C681.288 508.098 685.845 508.088 687.823 508.279L710.301 510.564C710.869 509.837 710.76 508.302 710.838 507.352C711.173 503.262 710.69 497.625 713.187 494.202C713.919 493.198 714.859 492.736 716.087 492.571C719.688 492.084 724.27 493.257 727.921 493.777L768.403 500.499L850.925 512.874L887.492 518.289C889.535 518.663 890.925 519.201 892.57 520.462C895.5 525.114 891.68 538.05 890.847 543.563L897.419 541.718C905.261 539.816 915.432 542.093 922.174 546.428C929.078 550.868 934.745 559.025 936.377 567.084C937.454 572.398 937.084 577.941 935.124 583.013C931.045 593.571 922.685 603.187 916.505 612.704L884.322 662.52C893.742 672.011 900.162 684.953 901.36 698.316C902.5 711.035 897.98 725.336 889.863 735.185C878.744 748.679 866.801 754.408 849.602 756.038L835.74 841.435L649.335 817.405L660.201 749.862L639.46 765.145L639.498 882.035L660.689 882.177C667.319 882.129 675.356 881.104 681.75 883.093C699.82 888.714 716.22 903.279 725.078 919.852C729.664 928.433 733.194 939.302 730.038 948.922C728.874 952.47 726.417 955.732 723 957.387C721.125 958.295 719.091 958.492 717.034 958.536L681.308 958.449L601.794 958.465L565.166 958.478L551.934 958.479C549.846 958.467 547.402 958.723 545.44 957.92C541.778 956.422 538.364 953.409 536.936 949.664C535.255 945.253 535.559 940.922 535.533 936.292L535.454 920.101C535.429 912.612 534.886 904.624 535.636 897.188C535.835 895.222 536.359 893.383 537.182 891.59C539.357 886.858 544.254 883.732 549.014 882.13L549.703 881.905L549.558 789.939L473.503 790.001L473.356 881.428C476.528 882.567 479.7 883.82 482.25 886.106C485.839 889.324 487.561 894.033 487.694 898.75L487.957 928.826C487.992 934.358 488.648 940.73 487.659 946.168C487.072 949.396 485.669 952.149 483.36 954.499C481.099 956.801 478.662 958.052 475.471 958.427C470.812 958.973 465.684 958.456 460.974 958.452L428.179 958.448L318.75 958.46L298.396 958.405C295.447 958.147 292.57 956.647 290.699 954.312C288.452 951.509 288.097 948.641 288.456 945.167C288.84 941.466 290.438 937.605 291.771 934.153C296.803 921.123 305.375 907.782 316.483 899.065C327.726 890.241 341.379 883.716 355.746 882.336C365.489 881.399 375.718 882.282 385.5 882.531L385.484 762.755L370.058 750.905C340.655 724.883 320.531 691.528 312.016 653.041C309.652 642.355 308.563 631.722 307.903 620.819L300.327 618.049L243.589 669.478L280.099 771.939L286.724 791.144C288.582 796.623 290.772 802.491 290.939 808.334C291.111 814.332 289.604 820.333 286.997 825.698C281.561 836.88 270.905 845.318 259.202 849.252C248.673 852.791 237.387 851.907 227.5 846.915C221.372 843.822 215.598 838.989 211.856 833.207C208.354 827.797 206.412 821.535 204.445 815.446L198.675 798.026L184.259 754.623C178.73 755.541 172.311 756.12 166.725 755.255L166 755.133L164.203 754.844C150.761 752.36 138.248 743.024 130.722 731.86C118.376 713.547 119.864 686.884 134.605 670.25C136.568 668.036 138.731 665.99 140.999 664.091C142.017 663.239 145.979 660.622 146.431 659.692C146.47 659.612 138.959 637.181 138.148 634.791L103.765 532.833L93.6306 502.844C91.9201 497.749 89.456 492.226 88.7058 486.914C87.3235 477.124 88.5695 466.781 88.8885 456.936L90.0274 414.17L90.8594 385C90.952 380.43 90.18 374.242 91.297 369.867C91.6578 368.454 92.4361 367.619 93.75 366.977C94.8334 366.448 95.9244 366.415 97 366.994C99.4603 368.318 101.806 372.381 103.583 374.589L121.347 396.922L150.389 432.497L161.383 444.805C163.788 447.458 166.479 450.096 168.275 453.211C171.549 458.889 172.983 465.551 174.972 471.75L181.436 490.695L218.296 597.286L253.941 565.87C257.304 562.899 260.986 560.075 264.189 556.959C265.854 555.34 266.866 550.485 267.869 548.186C272.83 536.823 281.844 526.456 292.173 519.642C306.285 510.332 323.792 506.163 340.471 509.57L348.538 499.19L320.406 492.019C309.082 489.163 294.158 487.019 285.797 478.25C272.695 464.509 275.262 441.977 275.549 424.484L254.073 424.23C248.548 424.203 241.099 425.078 236.034 422.686C231.823 420.697 228.503 416.456 227.087 412.089C225.586 407.459 226.403 400.592 226.379 395.629L226.243 364.723L226.153 321.989C226.149 313.882 225.825 305.592 226.432 297.512C226.615 295.076 227.179 292.74 228.389 290.594C230.656 286.577 234.238 283.823 238.646 282.549L239.443 282.33C244.975 280.775 251.37 281.707 257.086 281.76L275.477 281.522L275.538 270C275.823 262.552 280.973 255.154 286.322 250.304C296.852 240.758 309.774 240.268 323.309 240.937C325.387 238.47 326.72 233.265 328.229 230.193L336.201 215.77C353.235 187.229 377.163 163.638 405.653 146.552C420.19 137.833 435.627 130.952 451.75 125.771C453.145 125.323 464.607 121.905 464.644 121.831C464.855 121.415 464.298 117.461 464.257 116.774C463.532 104.668 465.907 92.6475 473.802 83.1027C483.136 71.8185 496.551 65.6226 510.994 64.2209Z"/>
	<path fill="#FEFEFE" transform="matrix(0.457031 0 0 0.457031 0 -1.52588e-05)" d="M696.348 522.75L697.095 522.716C699.544 522.638 707.102 523.161 708.767 524.72L708.25 527.047C707.023 527.593 705.883 527.417 704.592 527.242C701.307 526.796 698.258 526.778 696.141 523.978L696.348 522.75Z"/>
	<path fill="#008CEF" transform="matrix(0.457031 0 0 0.457031 0 -1.52588e-05)" d="M709.343 254.997C717.519 255.025 725.613 255.086 732.177 260.718C726.19 261.345 719.974 260.497 714.072 261.596L713.374 261.005L709.343 254.997Z"/>
	<path fill="#B9B9B8" transform="matrix(0.457031 0 0 0.457031 0 -1.52588e-05)" d="M123.382 420.452L154.499 455.992L142.331 460.645C136.438 447.405 126.018 434.92 123.382 420.452Z"/>
	<path fill="#008CEF" transform="matrix(0.457031 0 0 0.457031 0 -1.52588e-05)" d="M676.373 896.264C690.146 899.46 703.089 908.862 710.465 921L711.697 923.198C709.053 924.273 706.251 924.004 703.443 924.014L689.965 923.971C691.046 921.538 691.938 918.116 691.932 915.432C691.912 905.917 682.052 902.864 676.95 896.958L676.373 896.264Z"/>
	<path fill="#0C75FF" transform="matrix(0.457031 0 0 0.457031 0 -1.52588e-05)" d="M884.323 595.131L888.855 564.726C889.424 561.514 891.033 559.132 893.75 557.324C899.102 553.763 903.605 554.245 909.526 555.361L898.415 572.532L890.679 585.179C888.678 588.516 887.104 592.369 884.323 595.131Z"/>
	<path fill="#FDDD2F" transform="matrix(0.457031 0 0 0.457031 0 -1.52588e-05)" d="M225.681 710.784C228.653 714.246 229.622 718.106 231.049 722.36C231.567 723.905 231.846 725.48 232.453 727L233.798 730.677L240.331 750.126C242.227 755.837 243.653 761.674 246.269 767.119L239.387 769.609C238.087 764.611 236.152 759.66 234.484 754.77L227.079 733C225.872 729.6 223.724 725.47 223.232 721.918C223.103 720.99 223.922 718.873 224.187 717.941C224.854 715.592 225.252 713.185 225.681 710.784Z"/>
	<path fill="#007ACC" transform="matrix(0.457031 0 0 0.457031 0 -1.52588e-05)" d="M611.922 852.012L625.6 852.015L625.544 882.187L611.919 882.15L611.922 852.012Z"/>
	<path fill="#F2AA26" transform="matrix(0.457031 0 0 0.457031 0 -1.52588e-05)" d="M519.148 78.7276C527.959 80.4645 535.876 85.8373 540.841 93.3513C543.342 97.1363 544.91 101.789 545.569 106.25L545.704 107.125C546.309 111.257 545.86 115.05 545.117 119.123C538.239 117.925 531.754 117.322 524.796 117.008L526.25 111.527C527.899 104.822 526.559 97.9422 524.463 91.5C523.079 87.2474 520.416 83.5973 519.278 79.2561L519.148 78.7276Z"/>
	<path fill="#0C75FF" transform="matrix(0.457031 0 0 0.457031 0 -1.52588e-05)" d="M578.016 881.937L562.616 882.006L562.515 852.007L582.002 852.023L582.299 852.648C583.777 855.686 585.638 857.875 586.483 861.25L586.625 861.799C587.348 864.875 587.517 870.638 586.25 873.552L585.988 874.17C584.397 877.67 581.289 880.12 578.016 881.937Z"/>
	<path fill="#52FF92" transform="matrix(0.457031 0 0 0.457031 0 -1.52588e-05)" d="M108.471 422.773C112.297 421.456 117.848 418.474 121.75 418.526L123.382 420.452C126.018 434.92 136.438 447.405 142.331 460.645C137.419 462.32 131.02 463.713 126.499 466.103C122.73 458.49 119.691 450.553 116.808 442.569C114.308 435.644 112.518 429.025 108.471 422.773Z"/>
	<path fill="#007ACC" transform="matrix(0.457031 0 0 0.457031 0 -1.52588e-05)" d="M711.697 923.198C715.007 928.661 718.567 936.453 717.403 943C717.245 943.887 716.842 944.596 716.059 945.049C713.384 946.597 705.349 945.542 702.009 945.512C691.362 945.419 680.591 945.956 669.983 944.944C671.741 943.636 673.829 942.767 675.667 941.539C682.682 936.851 686.444 931.477 689.965 923.971L703.443 924.014C706.251 924.004 709.053 924.273 711.697 923.198Z"/>
	<path fill="#80FF9A" transform="matrix(0.457031 0 0 0.457031 0 -1.52588e-05)" d="M126.499 466.103L101.548 475L102.497 425.511C103.988 424.171 106.601 423.505 108.471 422.773C112.518 429.025 114.308 435.644 116.808 442.569C119.691 450.553 122.73 458.49 126.499 466.103Z"/>
	<path fill="#008CEF" transform="matrix(0.457031 0 0 0.457031 0 -1.52588e-05)" d="M582.002 852.023L611.922 852.012L611.919 882.15L578.016 881.937C581.289 880.12 584.397 877.67 585.988 874.17L586.25 873.552C587.517 870.638 587.348 864.875 586.625 861.799L586.483 861.25C585.638 857.875 583.777 855.686 582.299 852.648L582.002 852.023Z"/>
	<path fill="#008CEF" transform="matrix(0.457031 0 0 0.457031 0 -1.52588e-05)" d="M433.458 852.001L459.997 852.003L459.932 882.006L424.984 881.977L425.983 881.272C428.446 879.71 430.534 877.938 432.677 875.967C434.217 868.032 434.03 860.02 433.458 852.001Z"/>
	<path fill="#000192" transform="matrix(0.457031 0 0 0.457031 0 -1.52588e-05)" d="M573.106 515.797L607.809 511.815C594.635 527.218 578.004 543.545 556.75 545.383C551.71 545.819 546.488 545.602 541.43 545.573C538.289 545.555 534.819 545.926 531.872 544.738L544.5 539.625C553.913 535.09 562.554 529.501 569.887 522.015C571.417 520.454 573.744 518.302 574.448 516.25L573.106 515.797Z"/>
	<path fill="#B02920" transform="matrix(0.457031 0 0 0.457031 0 -1.52588e-05)" d="M253.648 778.257L266.613 774.08L273.835 795.097C275.096 798.778 277.009 803.076 277.441 806.946C277.963 811.614 277.221 816.027 275.183 820.248C271.325 828.239 264.594 833.516 256.281 836.297C250.309 838.295 242.534 839.135 236.769 836.178L235.42 835.395C238.434 834.919 241.574 834.877 244.5 833.914C250.647 831.892 255.915 827.12 258.853 821.388C265.986 807.471 258.147 791.804 253.648 778.257Z"/>
	<path fill="#62B9FF" transform="matrix(0.457031 0 0 0.457031 0 -1.52588e-05)" d="M280.921 582.645C279.828 579.545 278.774 576.33 278.462 573.042C277.395 561.785 280.688 550.299 287.934 541.483C299.842 526.993 315.433 523.599 333.195 521.948L327.023 534.261C309.817 539.487 296.384 551.51 287.986 567.358L280.921 582.645Z"/>
	<path fill="#FDDD2F" transform="matrix(0.457031 0 0 0.457031 0 -1.52588e-05)" d="M218.58 730.341L232.972 771.668L210.619 779.165C209.368 779.592 208.341 780.065 207.002 779.75C205.298 776.662 204.376 772.841 203.215 769.505L196.588 750.473C205.467 744.879 212.527 739.005 218.58 730.341Z"/>
	<path fill="#0C75FF" transform="matrix(0.457031 0 0 0.457031 0 -1.52588e-05)" d="M424.984 881.977L398.992 882.012L398.99 851.99L433.458 852.001C434.03 860.02 434.217 868.032 432.677 875.967C430.534 877.938 428.446 879.71 425.983 881.272L424.984 881.977Z"/>
	<path fill="#008CEF" transform="matrix(0.457031 0 0 0.457031 0 -1.52588e-05)" d="M230.93 632.834L223.04 611.695C229.106 605.42 235.851 599.737 242.351 593.918C249.528 587.494 256.908 580.397 264.94 575.065C267.018 582.264 268.193 588.266 271.872 594.968C264.865 600.274 259.109 606.374 252.75 612.394C245.468 619.287 237.897 625.56 230.93 632.834Z"/>
	<path fill="#007ACC" transform="matrix(0.457031 0 0 0.457031 0 -1.52588e-05)" d="M271.872 594.968C276.956 601.631 281.748 606.494 288.478 611.473L239.286 656.078L230.93 632.834C237.897 625.56 245.468 619.287 252.75 612.394C259.109 606.374 264.865 600.274 271.872 594.968Z"/>
	<path fill="#007ACC" transform="matrix(0.457031 0 0 0.457031 0 -1.52588e-05)" d="M206.242 683.687C211.687 691.035 213.66 700.899 212.401 709.878C211.014 719.765 204.483 729.603 196.5 735.464C188.811 741.109 178.328 743.424 168.953 741.927C158.247 740.216 149.597 735.867 143.133 726.974C140.424 723.247 137.968 718.443 137.121 713.891C146.032 718.351 155.322 723.248 165.484 723.925C175.403 724.585 186.498 720.811 193.885 714.244C202.612 706.486 205.646 694.927 206.242 683.687Z"/>
	<path fill="#007ACC" transform="matrix(0.457031 0 0 0.457031 0 -1.52588e-05)" d="M399.003 789.764L399.02 770.266C417.062 782.212 438.946 786.241 460.002 789.102L460.006 819.433L442.327 813.028C426.546 806.852 412.886 799.406 399.003 789.764Z"/>
	<path fill="#0C75FF" transform="matrix(0.457031 0 0 0.457031 0 -1.52588e-05)" d="M280.921 582.645L287.986 567.358C296.384 551.51 309.817 539.487 327.023 534.261C321.693 546.844 316.583 559.378 313.329 572.69C310.649 583.65 309.437 594.864 307.981 606.028C296.549 602.084 287.313 596.08 281.891 584.87L280.921 582.645Z"/>
	<path fill="#F2AA26" transform="matrix(0.457031 0 0 0.457031 0 -1.52588e-05)" d="M239.976 367.947L274.887 367.949L274.915 322L275.344 321.118L275.382 411.023L255.446 410.84C252.413 410.815 249.031 411.157 246.052 410.757C244.405 410.536 242.877 410.229 241.682 408.992C240.848 408.129 240.255 407.176 240.074 405.977C239.44 401.777 239.888 396.923 239.916 392.675L239.976 367.947Z"/>
	<path fill="#007ACC" transform="matrix(0.457031 0 0 0.457031 0 -1.52588e-05)" d="M880.152 679.149C885.948 686.731 888.52 697.655 887.306 707.069L886.652 710.25L886.459 711.093C884.179 720.749 877.746 730.68 869.25 735.924C860.194 741.514 849.167 743.464 838.814 740.879C828.764 738.369 819.544 730.594 814.547 721.712C812.121 717.399 810.793 712.938 810.306 708.023L815.918 713.015C824.186 719.377 834.491 724.25 845.171 722.708C851.659 721.771 857.949 720.175 863.303 716.174C870.615 710.712 876.049 702.019 878.134 693.166C879.208 688.606 879.524 683.792 880.152 679.149Z"/>
	<path fill="#007ACC" transform="matrix(0.457031 0 0 0.457031 0 -1.52588e-05)" d="M909.526 555.361C915.351 558.02 919.704 561.137 922.133 567.353C923.675 571.298 924.008 575.297 922.129 579.209C918.526 586.711 912.849 593.068 908.341 600.012L875.702 651.851L884.281 595.147L884.323 595.131C887.104 592.369 888.678 588.516 890.679 585.179L898.415 572.532L909.526 555.361Z"/>
	<path fill="#FDDD2F" transform="matrix(0.457031 0 0 0.457031 0 -1.52588e-05)" d="M524.796 117.008L478.03 119.219C477.049 114.511 476.875 109.371 477.863 104.647C479.595 96.365 485.022 88.3689 492.103 83.7562C500.282 78.4286 509.654 76.7554 519.148 78.7276L519.278 79.2561C520.416 83.5973 523.079 87.2474 524.463 91.5C526.559 97.9422 527.899 104.822 526.25 111.527L524.796 117.008Z"/>
	<path fill="#FEFEFE" transform="matrix(0.457031 0 0 0.457031 0 -1.52588e-05)" d="M496.887 84.5218C497.895 84.4716 499.005 84.3944 500 84.5942C501.818 84.9594 504.409 87.0885 505.159 88.7964C505.887 90.4544 505.742 92.5048 505.209 94.2051C503.486 99.6953 499.776 101.455 494.956 103.896C493.653 103.992 492.093 104.199 490.831 103.807C489.144 103.282 487.606 101.56 486.921 99.9723C485.88 97.5605 486.511 94.5752 487.465 92.25C489.321 87.7212 492.65 86.2825 496.887 84.5218Z"/>
	<path fill="#F2AA26" transform="matrix(0.457031 0 0 0.457031 0 -1.52588e-05)" d="M753.488 359.928C757.872 359.839 762.211 360.548 766.583 360.798L780.314 361.02C782.491 361.098 785.488 362.211 787.474 361.376C788.21 360.032 788.229 358.726 788.412 357.226L788.442 391.66C788.449 396.282 789.072 401.891 788.346 406.431C788.111 407.899 787.276 409.385 786.25 410.447C785.792 410.921 785.055 411.583 784.5 411.902C782.229 413.208 757.633 412.845 753.463 413.018L753.488 359.928Z"/>
	<path fill="#008CEF" transform="matrix(0.457031 0 0 0.457031 0 -1.52588e-05)" d="M399.003 789.764C412.886 799.406 426.546 806.852 442.327 813.028L460.006 819.433L459.9 839L422.333 839.448C414.577 839.552 406.69 840.034 398.979 839.095L399.003 789.764Z"/>
	<path fill="#D8442B" transform="matrix(0.457031 0 0 0.457031 0 -1.52588e-05)" d="M235.42 835.395C234.46 835.253 233.842 834.954 232.957 834.549C222.864 829.938 219.994 819.484 216.794 809.823L210.855 792.837L253.648 778.257C258.147 791.804 265.986 807.471 258.853 821.388C255.915 827.12 250.647 831.892 244.5 833.914C241.574 834.877 238.434 834.919 235.42 835.395Z"/>
	<path fill="#FDDD2F" transform="matrix(0.457031 0 0 0.457031 0 -1.52588e-05)" d="M753.488 359.928L753.493 293.993C758.806 294.019 783.571 292.895 786.644 295.674C787.514 296.461 788.089 297.381 788.328 298.529C789.511 304.218 788.581 311.059 788.557 316.909L788.412 357.226C788.229 358.726 788.21 360.032 787.474 361.376C785.488 362.211 782.491 361.098 780.314 361.02L766.583 360.798C762.211 360.548 757.872 359.839 753.488 359.928Z"/>
	<path fill="#FDDD2F" transform="matrix(0.457031 0 0 0.457031 0 -1.52588e-05)" d="M209.394 665.513C207.603 664.103 205.807 662.618 203.895 661.377C202.078 660.198 197.193 658.171 196.211 656.483C194.33 653.248 193.375 647.773 192.121 644.124L179.746 608.652L132.965 473.536C133.952 472.793 135.747 472.452 136.95 472.058L144.813 469.366L151.012 487L151.24 487.688L158.828 509.14L172.203 549.709L173.806 554.175L199.053 629.29C201.81 637.657 203.576 646.408 206.834 654.619C207.927 657.373 210.326 662.788 209.394 665.513Z"/>
	<path fill="#FDDD2F" transform="matrix(0.457031 0 0 0.457031 0 -1.52588e-05)" d="M239.976 367.947L239.313 303.168C239.359 300.569 239.647 298.18 241.768 296.412C242.534 295.773 243.576 295.317 244.555 295.148C248.601 294.45 253.648 294.973 257.824 294.981C263.566 294.993 269.262 294.541 274.986 295.149C276.245 303.382 275.375 312.75 275.344 321.118L274.915 322L274.887 367.949L239.976 367.947Z"/>
	<path fill="#62B9FF" transform="matrix(0.457031 0 0 0.457031 0 -1.52588e-05)" d="M289.053 279.445L289.001 277.879C288.87 270.838 290.603 265.202 295.631 260.107C298.802 256.894 302.648 255.263 307.114 254.853C311.691 254.433 316.412 254.92 321.006 254.965L345.003 254.986L430.957 254.991L709.343 254.997L713.374 261.005C702.513 262.286 690.939 261.365 679.979 261.351L608.422 261.066L359.884 261.401L330.25 261.986L315.022 261.986C311.636 261.993 308.176 261.661 304.957 262.851L304.143 263.146C295.898 266.264 293.265 272.508 289.053 279.445Z"/>
	<path fill="#008CEF" transform="matrix(0.457031 0 0 0.457031 0 -1.52588e-05)" d="M548.492 923.994L689.965 923.971C686.444 931.477 682.682 936.851 675.667 941.539C673.829 942.767 671.741 943.636 669.983 944.944L548.463 945.007L548.492 923.994Z"/>
	<path fill="#0C75FF" transform="matrix(0.457031 0 0 0.457031 0 -1.52588e-05)" d="M810.306 708.023C809.373 703.839 809.384 700.115 810.099 695.924C811.821 685.837 817.875 676.272 826.273 670.417C834.495 664.684 845.69 661.89 855.611 663.818C865.603 665.76 874.362 670.596 880.152 679.149C879.524 683.792 879.208 688.606 878.134 693.166C876.049 702.019 870.615 710.712 863.303 716.174C857.949 720.175 851.659 721.771 845.171 722.708C834.491 724.25 824.186 719.377 815.918 713.015L810.306 708.023Z"/>
	<path fill="#0412B2" transform="matrix(0.457031 0 0 0.457031 0 -1.52588e-05)" d="M531.872 544.738C525.821 545.707 519.69 545.572 513.578 545.56L490.655 545.496C483.414 545.5 475.657 546.248 468.5 545.39C464.736 544.939 460.914 543.354 457.506 541.737C446.998 536.75 439.549 530.04 432.25 521.068L426.61 512.964L482.223 517.701C512.686 519.248 542.722 517.772 573.106 515.797L574.448 516.25C573.744 518.302 571.417 520.454 569.887 522.015C562.554 529.501 553.913 535.09 544.5 539.625L531.872 544.738Z"/>
	<path fill="#0C75FF" transform="matrix(0.457031 0 0 0.457031 0 -1.52588e-05)" d="M137.121 713.891C134.29 709.186 135.167 700.635 136.322 695.47C138.874 684.064 145.601 675.844 155.33 669.75C162.288 665.392 172.753 663.304 180.769 665.226L187.008 666.825C195.781 669.585 202.095 675.625 206.242 683.687C205.646 694.927 202.612 706.486 193.885 714.244C186.498 720.811 175.403 724.585 165.484 723.925C155.322 723.248 146.032 718.351 137.121 713.891Z"/>
	<path fill="#007ACC" transform="matrix(0.457031 0 0 0.457031 0 -1.52588e-05)" d="M562.455 810.073L562.535 789.065C584.507 786.928 604.863 781.545 624.968 772.484L625.047 838.998L613.009 839.136L562.462 839.382L562.455 810.073Z"/>
	<path fill="#008CEF" transform="matrix(0.457031 0 0 0.457031 0 -1.52588e-05)" d="M562.455 810.073C579.806 809.316 596.664 804.82 612.952 799.034L613.009 839.136L562.462 839.382L562.455 810.073Z"/>
	<path fill="#507988" transform="matrix(0.457031 0 0 0.457031 0 -1.52588e-05)" d="M724.67 507.31L878.658 531.136L875.878 552.183L721.514 531.893C721.177 529.566 721.963 526.707 722.28 524.365L724.67 507.31Z"/>
	<path fill="#0C75FF" transform="matrix(0.457031 0 0 0.457031 0 -1.52588e-05)" d="M548.492 923.994L548.574 895.689C555.385 895.238 562.381 895.472 569.211 895.484L603.805 895.618L653 895.73L673.192 895.498C674.441 895.52 675.241 895.783 676.373 896.264L676.95 896.958C682.052 902.864 691.912 905.917 691.932 915.432C691.938 918.116 691.046 921.538 689.965 923.971L548.492 923.994Z"/>
	<path fill="#62B9FF" transform="matrix(0.457031 0 0 0.457031 0 -1.52588e-05)" d="M666.442 904.024L670.25 904.58C672.362 905.093 674.723 906.949 675.81 908.814C676.936 910.748 677.11 913.411 676.491 915.533C675.491 918.968 672.724 920.808 669.75 922.42C667.434 922.833 665.213 922.377 663.098 921.341C660.927 920.276 659.468 918.553 658.803 916.247C658.217 914.219 658.108 910.852 659.216 908.989C661.013 905.966 663.137 904.908 666.442 904.024Z"/>
	<path fill="#007ACC" transform="matrix(0.457031 0 0 0.457031 0 -1.52588e-05)" d="M530.022 131.384C534.992 130.932 540.353 131.945 545.266 132.655C578.173 137.409 612.007 154.406 637.355 175.651C654.393 189.932 668.105 207.839 679.144 227.053C681.765 231.615 684.472 235.86 686.383 240.789L645.364 240.946C638.839 240.966 631.157 241.695 624.753 240.594L632.524 240.55C622.994 212.227 610.267 186.878 588.889 165.54C581.477 158.141 573.351 151.237 564.125 146.183C557.283 142.435 549.874 139.251 542.586 136.458C538.519 134.9 534.256 133.865 530.469 131.652L530.022 131.384Z"/>
	<path fill="#FDDD2F" transform="matrix(0.457031 0 0 0.457031 0 -1.52588e-05)" d="M124.952 476.75L126.5 476.641C127.196 477.426 127.616 478.036 127.985 479.034L142.152 521.132L188.541 653.96C180.188 652.5 173.131 652.181 164.666 652.898L159.273 654.302L101.192 485.423L124.952 476.75Z"/>
	<defs>
		<linearGradient id="gradient_0" gradientUnits="userSpaceOnUse" x1="231.45634" y1="609.75739" x2="175.51076" y2="620.57233">
			<stop offset="0" stop-color="#FFBA1B"/>
			<stop offset="1" stop-color="#FFA21F"/>
		</linearGradient>
	</defs>
	<path fill="url(#gradient_0)" transform="matrix(0.457031 0 0 0.457031 0 -1.52588e-05)" d="M144.813 469.366L158.899 463.933L262.329 761.6L246.269 767.119C243.653 761.674 242.227 755.837 240.331 750.126L233.798 730.677L232.453 727C231.846 725.48 231.567 723.905 231.049 722.36C229.622 718.106 228.653 714.246 225.681 710.784C225.385 706.512 225.875 702.119 225.425 697.883C224.118 685.575 217.486 674.524 209.394 665.513C210.326 662.788 207.927 657.373 206.834 654.619C203.576 646.408 201.81 637.657 199.053 629.29L173.806 554.175L172.203 549.709L158.828 509.14L151.24 487.688L151.012 487L144.813 469.366Z"/>
	<path fill="#008CEF" transform="matrix(0.457031 0 0 0.457031 0 -1.52588e-05)" d="M450.02 895.364C456.447 895.145 468.246 893.382 474 896.533C476.069 899.245 475.09 906.63 475.076 910.156L475.014 945.008L302.28 945.113C304.958 937.545 307.825 930.898 312.21 924.126C314.706 919.853 317.956 916.244 321.43 912.751C329.399 904.74 339.275 899.373 350.221 896.689C355.35 895.432 360.828 895.544 366.068 895.542L385.546 895.528L450.02 895.364Z"/>
	<path fill="#0C75FF" transform="matrix(0.457031 0 0 0.457031 0 -1.52588e-05)" d="M312.21 924.126C314.706 919.853 317.956 916.244 321.43 912.751C329.399 904.74 339.275 899.373 350.221 896.689C355.35 895.432 360.828 895.544 366.068 895.542L385.546 895.528L450.02 895.364C453.613 898.888 455.759 901.913 456.539 907L456.665 907.799C457.421 913.032 456.914 918.71 456.475 923.965L387.608 924.003L369.249 924.001C365.957 923.996 362.093 924.391 358.912 923.542C356.329 923.887 353.91 923.835 351.322 923.713C343.755 924.703 335.57 924.017 327.928 924.054C322.823 924.079 317.255 924.753 312.21 924.126Z"/>
	<path fill="#E0EDEC" transform="matrix(0.457031 0 0 0.457031 0 -1.52588e-05)" d="M351.322 923.713C347.838 921.395 344.983 919.872 344.175 915.438C343.654 912.584 344.044 909.351 345.863 907.024C347.801 904.545 350.249 903.145 353.38 902.803C356.556 902.455 359.907 903.413 362.247 905.601C363.746 907.004 365.421 909.243 365.495 911.309L365.536 912.299C365.648 915.314 365.432 917.854 363.281 920.199C362.068 921.521 360.402 922.552 358.912 923.542C356.329 923.887 353.91 923.835 351.322 923.713Z"/>
	<path fill="#E0EDEC" transform="matrix(0.457031 0 0 0.457031 0 -1.52588e-05)" d="M803.78 730.857C809.544 739.11 816.467 746.363 825.775 750.592C829.129 752.116 832.905 753.033 836.426 754.088L824.336 825.714L664.225 805.284L666.309 794.018C667.358 793.98 668.43 794.009 669.43 793.658C671.557 792.911 673.86 792.594 676 791.835C678.297 791.02 680.534 789.912 682.844 789.156L690.669 786.44L700.574 782.973L715.696 777.457C729.841 771.507 743.96 765.879 757.503 758.56L781.332 744.506C788.786 740.158 796.955 736.142 803.78 730.857Z"/>
	<path fill="#007ACC" transform="matrix(0.457031 0 0 0.457031 0 -1.52588e-05)" d="M629.503 509.49L649.141 505.592C652.155 504.98 655.692 503.825 658.751 503.927L691.205 539.98L669.185 687.009L666.487 705.157C665.58 712.827 665.197 722.788 662.25 729.963C660.578 734.034 654.547 737.949 651.154 740.531C623.068 761.903 589.925 772.996 554.914 775.932C537.654 777.379 520.092 777.019 502.781 777.027L476.922 777.044C470.342 777.068 463.982 777.402 457.418 776.482C415.446 770.604 377.262 746.249 352.045 712.452C338.366 694.119 329.449 671.781 324.805 649.464C324.026 645.721 322.599 640.571 323.11 636.757L323.229 636.011L333.04 657.5C340.66 672.465 351.237 687.015 363.404 698.591C390.456 724.327 424.617 740.837 461.381 747.35C476.731 750.069 492.079 750.855 507.618 751.442L544.705 751.97C577.94 750.913 609.338 737.629 632.172 713.426C660.056 683.871 669.437 640.219 667.921 600.738C666.632 567.173 654.561 532.61 629.503 509.49Z"/>
	<path fill="#007ACC" transform="matrix(0.457031 0 0 0.457031 0 -1.52588e-05)" d="M732.177 260.718C735.519 263.709 737.226 267.017 738.541 271.25L738.774 271.98C740.399 277.38 739.983 283.65 739.996 289.239L739.989 311.97L739.969 363.691L739.95 419.075C739.955 429.152 740.392 439.443 739.83 449.5C739.609 453.44 739.226 457.233 737.308 460.762C732.57 469.48 724.268 472.972 715.189 475.431L682.534 483.137L638.151 493.512L615.453 496.894C581.856 501.931 547.626 504.883 513.632 504.732C488.636 504.62 463.836 502.737 439 500.117C408.797 496.931 379.493 492.599 349.98 485.363L320.374 477.989C312.862 476.079 304.393 474.717 297.676 470.776C293.286 468.201 290.822 463.84 289.725 458.988C288.623 454.118 288.948 448.865 288.99 443.898L312.284 450.634L355.674 461.067C385.188 467.161 414.994 471.01 445 473.626C491.295 477.663 538.482 478.065 584.75 473.416L636.969 465.902L675.5 457.547C683.599 455.698 693.575 454.287 701.062 450.769C707.071 447.946 713.028 442.109 715.168 435.734C717.007 430.252 716.45 422.877 716.433 417.121L716.396 393.994L716.417 332.409L716.473 292.998L716.425 271.386C716.26 267.951 715.65 264.666 714.072 261.596C719.974 260.497 726.19 261.345 732.177 260.718Z"/>
	<path fill="#008CEF" transform="matrix(0.457031 0 0 0.457031 0 -1.52588e-05)" d="M624.753 240.594L338.499 240.979C351.69 210.878 373.663 185.271 400.284 166.177C428.26 146.113 460.327 134.034 494.597 130.846C506.467 129.742 518.217 129.447 530.022 131.384L530.469 131.652C534.256 133.865 538.519 134.9 542.586 136.458C549.874 139.251 557.283 142.435 564.125 146.183C573.351 151.237 581.477 158.141 588.889 165.54C610.267 186.878 622.994 212.227 632.524 240.55L624.753 240.594Z"/>
	<path fill="#62B9FF" transform="matrix(0.457031 0 0 0.457031 0 -1.52588e-05)" d="M409.399 171.536C413.465 171.233 418.022 171.297 421.75 173.102C426.409 175.358 429.977 179.668 431.571 184.551C433.24 189.663 432.634 195.553 430.192 200.322C427.112 206.338 422.851 208.285 416.759 210.361C412.004 210.62 408.071 209.889 403.776 207.708C399.449 205.51 396.281 201.066 394.795 196.541C393.078 191.314 393.254 186.283 395.818 181.35C398.656 175.891 403.815 173.297 409.399 171.536Z"/>
	<path fill="#FEFEFE" transform="matrix(0.457031 0 0 0.457031 0 -1.52588e-05)" d="M666.309 794.018L705.163 543.784L874.041 566.582L861.892 651.251C848.885 649.435 835.908 649.802 823.964 655.788C812.266 661.651 802.898 673.14 798.839 685.486C793.548 701.575 796.272 716.094 803.78 730.857C796.955 736.142 788.786 740.158 781.332 744.506L757.503 758.56C743.96 765.879 729.841 771.507 715.696 777.457L700.574 782.973L690.669 786.44L682.844 789.156C680.534 789.912 678.297 791.02 676 791.835C673.86 792.594 671.557 792.911 669.43 793.658C668.43 794.009 667.358 793.98 666.309 794.018Z"/>
	<path fill="#007ACC" transform="matrix(0.457031 0 0 0.457031 0 -1.52588e-05)" d="M816.588 604.338C821.72 608.453 826.403 614.037 831.06 618.735L729.835 709.252L709.827 682.237L696.924 664.467L710.797 652.976C714.407 656.727 717.048 661.097 720.047 665.322L732.827 682.83L816.588 604.338Z"/>
	<defs>
		<linearGradient id="gradient_1" gradientUnits="userSpaceOnUse" x1="662.87061" y1="650.27533" x2="324.45438" y2="587.4386">
			<stop offset="0" stop-color="#00BAEE"/>
			<stop offset="1" stop-color="#066DFF"/>
		</linearGradient>
	</defs>
	<path fill="url(#gradient_1)" transform="matrix(0.457031 0 0 0.457031 0 -1.52588e-05)" d="M323.229 636.011L321.9 628.155C320.977 620.396 321.37 612.325 321.933 604.55C324.675 566.684 339.434 531.495 362.743 501.761L399.926 509.199L408.703 510.716C409.213 510.8 411.381 510.965 411.719 511.201C412.239 511.564 413.579 514.667 413.962 515.431C415.801 519.096 417.626 522.673 419.949 526.064C426.157 535.131 433.82 543.079 443.054 549.097C448.667 552.755 454.936 555.793 461.566 556.985C468.399 558.213 475.173 558.013 482.086 558.015L509.066 557.996L540.773 558.007C549.189 557.999 557.796 558.579 566.063 556.78C577.072 554.383 585.906 548.9 594.68 541.965C606.488 532.632 615.188 522.727 623.32 510.074L629.503 509.49C654.561 532.61 666.632 567.173 667.921 600.738C669.437 640.219 660.056 683.871 632.172 713.426C609.338 737.629 577.94 750.913 544.705 751.97L507.618 751.442C492.079 750.855 476.731 750.069 461.381 747.35C424.617 740.837 390.456 724.327 363.404 698.591C351.237 687.015 340.66 672.465 333.04 657.5L323.229 636.011Z"/>
	<path fill="#62B9FF" transform="matrix(0.457031 0 0 0.457031 0 -1.52588e-05)" d="M379.012 543.646C383.775 543.17 389.595 544.226 393.752 546.541C401.22 550.701 406.167 556.952 408.433 565.198L408.648 566L409.247 568.464C410.505 575.254 408.71 583.655 404.716 589.321C399.337 596.952 392.108 600.509 383.108 602.155C380.317 602.239 377.189 602.361 374.471 601.7L373.75 601.512C370.387 600.66 367.332 599.407 364.398 597.544C357.886 593.411 353.591 585.989 351.972 578.562C350.462 571.636 352.032 563.115 356.046 557.25C361.87 548.74 369.054 545.538 379.012 543.646Z"/>
	<path fill="#132C37" transform="matrix(0.457031 0 0 0.457031 0 -1.52588e-05)" d="M487.147 589.72L520.327 589.984C528.747 589.986 538.145 589.193 546.453 590.353C551.004 590.989 555.87 592.682 559.75 595.17C566.746 599.655 571.428 606.317 573.187 614.469C574.383 620.011 574.012 625.885 574.021 631.53L574.038 655.516L574.013 675.989C574.002 680.277 574.245 684.73 573.556 688.974C572.789 693.707 570.839 698.652 568.23 702.671C560.893 713.969 550.088 721.152 536.94 723.871L528.733 724.81C522.215 725.313 515.669 724.988 509.137 725.025C493.933 725.11 478.553 726.314 466.25 715.524C458.043 708.325 452.7 698.114 452.006 687.183C451.286 675.833 451.918 664.026 451.844 652.636L451.633 630.844C451.563 625.164 451.304 619.341 452.434 613.736C453.358 609.153 455.879 604.308 458.994 600.828C466.845 592.055 475.919 590.378 487.147 589.72Z"/>
	<path fill="#FDDD2F" transform="matrix(0.457031 0 0 0.457031 0 -1.52588e-05)" d="M530.377 596.424C539.914 595.31 549.867 596.118 557.685 602.273C561.57 605.332 564.582 609.816 566.073 614.5L566.311 615.212C567.512 619.094 567.035 623.939 567.037 627.993L567.045 649.439C567.06 661.426 568.463 674.264 566.669 686.147C566.061 690.171 564.642 694.268 562.705 697.852C557.945 706.655 549.652 713.361 540 715.987C529.246 718.913 517.903 717.868 506.878 717.869C500.207 717.869 493.224 718.465 486.647 717.273C480.014 716.283 474.334 713.772 469.544 708.967C464.637 704.043 461.252 697.743 459.615 691C457.438 682.031 458.308 671.784 458.249 662.583L458.009 625.074C457.992 617.031 459.548 609.605 465.534 603.75C469.468 599.903 473.878 597.965 479.248 596.934C484.843 595.861 491.376 596.441 497.074 596.435L530.377 596.424Z"/>
	<path fill="#132C37" transform="matrix(0.457031 0 0 0.457031 0 -1.52588e-05)" d="M492.687 619.75C496.922 618.765 501.76 619.45 506.113 619.461C513.587 619.481 521.312 619.063 528.75 619.732C530.143 620.955 530.262 621.322 530.855 623C530.544 624.816 530.468 625.05 529.25 626.424C523.883 627.815 517.082 627.009 511.493 627.021C505.893 627.032 498.569 627.918 493.25 626.4C492.104 625.418 491.463 624.759 491.259 623.148C491.07 621.658 491.831 620.833 492.687 619.75Z"/>
	<path fill="#132C37" transform="matrix(0.457031 0 0 0.457031 0 -1.52588e-05)" d="M520.182 646.703C522.537 646.323 527.855 646.005 529.814 647.498C530.841 648.282 531.274 649.623 531.398 650.853C531.512 651.969 531.361 652.251 530.563 653.08C529.849 653.822 528.479 654.293 527.504 654.457C525.171 654.851 522.317 654.651 519.924 654.676L502.805 654.489C499.979 654.536 495.418 655.178 492.971 653.684C491.888 653.023 491.187 652.315 491.031 651C490.834 649.338 491.476 648.626 492.5 647.452C494.961 646.216 499.122 646.819 501.883 646.851C507.679 646.919 513.517 647.176 519.302 646.769L520.182 646.703Z"/>
	<path fill="#132C37" transform="matrix(0.457031 0 0 0.457031 0 -1.52588e-05)" d="M493.983 674.25L495.253 673.884C497.212 673.536 499.516 673.863 501.508 673.912L513.159 674.018C517.821 674.032 522.98 673.328 527.56 673.921C528.572 674.052 529.214 674.417 530.039 674.982C530.605 676.042 530.961 676.887 530.696 678.119C530.347 679.743 529.492 680.382 528.25 681.291C519.186 682.538 509.284 682.59 500.165 681.976C497.903 681.824 495.042 681.892 492.927 681.099C492.079 680.013 491.165 678.739 491.507 677.25C491.897 675.555 492.703 675.215 493.983 674.25Z"/>
	<path fill="#F2AA26" transform="matrix(0.457031 0 0 0.457031 0 -1.52588e-05)" d="M530.377 596.424C539.914 595.31 549.867 596.118 557.685 602.273C561.57 605.332 564.582 609.816 566.073 614.5L566.311 615.212C567.512 619.094 567.035 623.939 567.037 627.993L567.045 649.439C567.06 661.426 568.463 674.264 566.669 686.147C566.061 690.171 564.642 694.268 562.705 697.852C557.945 706.655 549.652 713.361 540 715.987C529.246 718.913 517.903 717.868 506.878 717.869C500.207 717.869 493.224 718.465 486.647 717.273L487.627 716.731C487.065 715.786 487.349 716.004 486.571 715.486C480.439 711.402 477.003 706.159 474.212 699.416C476.397 700.935 478.581 702.935 480.887 704.183C484.765 706.282 489.494 706.935 493.856 707.041L511.137 707.038C519.302 707.139 529.01 708.149 536.858 705.772C540.637 704.627 543.915 702.301 546.711 699.575C552.619 693.816 554.931 686.59 555.01 678.495L555.014 640.616C555.007 633.382 555.992 624.356 554.271 617.351C552.839 611.521 549.717 606.985 545.573 602.768L545.037 602.164C540.723 597.445 536.46 596.671 530.377 596.424Z"/>
	<path fill="#0C75FF" transform="matrix(0.457031 0 0 0.457031 0 -1.52588e-05)" d="M713.374 261.005L714.072 261.596C715.65 264.666 716.26 267.951 716.425 271.386L716.473 292.998L716.417 332.409L716.396 393.994L716.433 417.121C716.45 422.877 717.007 430.252 715.168 435.734C713.028 442.109 707.071 447.946 701.062 450.769C693.575 454.287 683.599 455.698 675.5 457.547L636.969 465.902L584.75 473.416C538.482 478.065 491.295 477.663 445 473.626C414.994 471.01 385.188 467.161 355.674 461.067L312.284 450.634L288.99 443.898L289.053 279.445C293.265 272.508 295.898 266.264 304.143 263.146L304.957 262.851C308.176 261.661 311.636 261.993 315.022 261.986L330.25 261.986L359.884 261.401L608.422 261.066L679.979 261.351C690.939 261.365 702.513 262.286 713.374 261.005Z"/>
	<path fill="#132C37" transform="matrix(0.457031 0 0 0.457031 0 -1.52588e-05)" d="M484.588 427.25C491.243 425.976 493.749 432.671 498.661 435.572C505.9 439.848 517.556 440.646 524.563 435.451C527.564 433.227 529.934 427.93 533.75 427.141C535.742 426.73 537.99 426.862 539.7 428.045C541.422 429.237 542.746 431.564 542.932 433.64C543.216 436.825 540.967 439.262 539.101 441.55C536.031 444.549 532.34 447.133 528.484 449.018C519.069 453.621 506.879 453.81 497.125 450.316C490.897 448.084 482.322 442.938 479.78 436.496C479.182 434.982 479.203 433.066 479.862 431.57C480.805 429.434 482.489 428.12 484.588 427.25Z"/>
	<path fill="#132C37" transform="matrix(0.457031 0 0 0.457031 0 -1.52588e-05)" d="M407.434 284.71L407.921 284.637C423.678 283.071 443.478 289.692 455.858 299.383C473.193 312.953 484.84 332.22 487.31 354.25C489.521 373.976 483.508 395.173 470.958 410.59C456.172 428.754 437.125 438.126 414.125 440.472C394.744 441.688 375.802 434.989 360.898 422.652C343.974 408.644 334.826 389.657 332.866 367.952C331.04 347.724 338.379 327.298 351.301 311.843C361.761 299.333 376.076 290.32 392 286.649C396.975 285.502 402.363 285.184 407.434 284.71Z"/>
	<path fill="#B9B9B8" transform="matrix(0.457031 0 0 0.457031 0 -1.52588e-05)" d="M472.064 352.792C475.346 366.602 471.813 382.931 464.461 394.931C455.728 409.183 440.94 420.668 424.578 424.571L417.533 425.71C400.114 427.873 383.724 423.175 370.024 412.29C357.969 402.712 349.294 386.01 347.508 370.75C346.997 366.379 346.639 359.521 347.962 355.316C349.003 358.227 349.222 361.497 349.678 364.552C350.896 372.714 353.231 379.451 357.82 386.359C367.337 400.687 380.778 410.127 397.75 413.354C414.809 416.597 431.674 413.089 446.015 403.306C459.907 393.828 467.571 380.011 470.62 363.75C471.304 360.105 471.371 356.44 472.064 352.792Z"/>
	<path fill="#FEFEFE" transform="matrix(0.457031 0 0 0.457031 0 -1.52588e-05)" d="M347.962 355.316C348.043 344.08 353.499 331.303 360.418 322.596C371.008 309.266 387.765 300.732 404.588 298.921C420.282 297.231 438.054 303.197 450.124 313.183C462.188 323.164 470.665 337.063 472.064 352.792C471.371 356.44 471.304 360.105 470.62 363.75C467.571 380.011 459.907 393.828 446.015 403.306C431.674 413.089 414.809 416.597 397.75 413.354C380.778 410.127 367.337 400.687 357.82 386.359C353.231 379.451 350.896 372.714 349.678 364.552C349.222 361.497 349.003 358.227 347.962 355.316Z"/>
	<path fill="#132C37" transform="matrix(0.457031 0 0 0.457031 0 -1.52588e-05)" d="M407.069 326.593C416.376 325.371 426.015 327.474 433.804 332.762C441.401 337.919 446.461 345.867 448.096 354.878C449.959 365.147 448.164 376.694 441.904 385.25C435.951 393.386 426.638 398.207 416.876 399.804C408.068 400.7 400.071 398.902 392.477 394.453C384.253 389.633 378.518 381.762 376.196 372.513C373.787 362.91 375.537 352.454 380.589 344C386.711 333.757 395.92 329.349 407.069 326.593Z"/>
	<path fill="#3E4D56" transform="matrix(0.457031 0 0 0.457031 0 -1.52588e-05)" d="M439.554 345.263L440.062 345.617C443.085 348.087 444.194 354.393 444.544 358.162C445.041 363.52 444.933 368.358 443.334 373.564C440.687 382.184 435.911 388.393 427.883 392.556C419.829 396.733 410.115 397.6 401.445 394.752L400.75 394.516C397.976 393.594 395.376 392.279 392.949 390.648C386.477 386.3 381.324 378.683 379.947 370.994L379.799 370.118C378.8 364.437 378.723 358.671 380.669 353.156L380.907 352.5C383.056 346.44 387.184 340.437 392.465 336.695C400.521 330.986 408.806 328.55 418.665 330.366C423.549 331.266 429.875 333.367 432.74 337.613L432.974 337.973C435.876 340.126 437.745 342.08 439.554 345.263Z"/>
	<path fill="#FEFEFE" transform="matrix(0.457031 0 0 0.457031 0 -1.52588e-05)" d="M439.554 345.263C439.573 347.488 439.626 349.814 438.753 351.906C437.603 354.662 435.33 356.68 432.579 357.79C430.283 358.716 427.443 358.856 425.205 357.716C421.594 355.876 419.954 352.46 418.722 348.816C419.157 345.146 420.704 341.398 423.75 339.157C426.851 336.877 429.472 337.507 432.974 337.973C435.876 340.126 437.745 342.08 439.554 345.263Z"/>
	<path fill="#132C37" transform="matrix(0.457031 0 0 0.457031 0 -1.52588e-05)" d="M607.833 284.685C613.047 284.055 618.916 284.099 624.129 284.8C636.948 286.523 648.142 290.296 659.097 297.287C675.98 308.063 688.017 325.545 692.287 345.1C697.051 366.912 692.534 388.027 680.533 406.609C671.578 420.474 657.147 431.303 641.618 436.823C636.287 438.717 630.616 439.848 625.086 441.013C605.608 442.687 584.884 437.301 569.069 425.775C552.34 413.584 540.968 395.026 537.862 374.51C534.874 354.767 539.721 332.669 551.689 316.56C565.806 297.557 584.814 288.032 607.833 284.685Z"/>
	<path fill="#B9B9B8" transform="matrix(0.457031 0 0 0.457031 0 -1.52588e-05)" d="M640.891 304.2C653.836 308.114 665.38 319.468 671.659 331.238C679.86 346.612 682.612 364.218 677.371 381.097C672.267 397.539 660.326 412.124 645.018 420.107C630.436 427.71 612.372 429.301 596.705 424.256C580.068 418.899 566.256 407.209 558.363 391.594L556.05 386.258C561.099 388.68 565.787 394.372 569.877 398.174C580.002 407.589 595.972 414.632 609.922 415.015C624.941 415.428 641.169 409.478 651.969 398.977C662.979 388.271 669.924 373.576 669.973 358.094C670.025 341.465 663.493 326.107 651.945 314.25C648.577 310.791 644.621 307.996 641.251 304.571L640.891 304.2Z"/>
	<path fill="#FEFEFE" transform="matrix(0.457031 0 0 0.457031 0 -1.52588e-05)" d="M556.05 386.258L554.668 382.92C548.961 368.637 550.2 351.1 556.221 337.135C563.434 320.409 577.224 308.681 593.976 302.138C609.77 295.968 625.651 297.556 640.891 304.2L641.251 304.571C644.621 307.996 648.577 310.791 651.945 314.25C663.493 326.107 670.025 341.465 669.973 358.094C669.924 373.576 662.979 388.271 651.969 398.977C641.169 409.478 624.941 415.428 609.922 415.015C595.972 414.632 580.002 407.589 569.877 398.174C565.787 394.372 561.099 388.68 556.05 386.258Z"/>
	<path fill="#132C37" transform="matrix(0.457031 0 0 0.457031 0 -1.52588e-05)" d="M610.795 325.632C620.338 325.04 629.367 327.479 637.156 333.058C644.569 338.368 650.203 346.714 651.542 355.814L651.67 356.75L651.797 357.592C653.103 366.805 650.863 376.805 645.16 384.228C638.974 392.281 629.805 397.299 619.795 398.709C609.639 399.625 600.531 397.649 592.136 391.735C584.768 386.545 579.958 378.602 578.464 369.75C576.782 359.786 578.484 348.813 584.473 340.515C590.816 331.728 600.376 327.383 610.795 325.632Z"/>
	<path fill="#3E4D56" transform="matrix(0.457031 0 0 0.457031 0 -1.52588e-05)" d="M592.539 337.756L592.805 337.351C596.418 331.99 602.58 330.573 608.538 329.326C617.302 327.491 627.035 330.114 634.363 335.02C641.195 339.594 645.346 347.024 647.523 354.75L647.772 355.617C649.853 363.328 648.129 372.455 644.184 379.316C641.88 383.324 637.922 387.571 634 390.013C626.825 394.479 617.55 396.991 609.089 395.166C603.788 394.023 598.701 391.858 594.317 388.682L593.823 388.33C587.229 383.567 582.818 376.554 581.511 368.5C580.327 361.199 581.264 351.232 585.905 345.239C586.375 344.632 586.875 344.23 587.523 343.83C588.098 343.644 591.783 338.641 592.539 337.756Z"/>
	<path fill="#FEFEFE" transform="matrix(0.457031 0 0 0.457031 0 -1.52588e-05)" d="M592.539 337.756C596.71 337.013 600.373 336.265 604.098 338.974C606.584 340.783 608.095 343.867 608.435 346.886C608.738 349.586 607.814 352.138 606.058 354.177C603.713 356.9 600.606 358.417 597 358.46C594.323 358.491 592.171 357.079 590.354 355.233C588.319 353.167 586.986 350.187 587.069 347.25L587.523 343.83C588.098 343.644 591.783 338.641 592.539 337.756Z"/>
</svg>
